<svg width="191" height="191" viewBox="0 0 191 191" fill="none" xmlns="http://www.w3.org/2000/svg">
<path d="M93.3257 1.43144C94.5114 0.441692 96.2352 0.44169 97.4209 1.43144L109.627 11.6212C110.481 12.3341 111.644 12.5515 112.698 12.1953L127.761 7.10308C129.225 6.60847 130.832 7.2312 131.58 8.58241L139.281 22.4936C139.82 23.4668 140.826 24.0897 141.937 24.1382L157.823 24.8314C159.366 24.8987 160.64 26.06 160.849 27.5902L163.005 43.3441C163.156 44.4461 163.869 45.3904 164.888 45.8371L179.45 52.222C180.865 52.8421 181.633 54.3853 181.276 55.8878L177.595 71.3566C177.338 72.4387 177.661 73.5769 178.45 74.3614L189.723 85.5757C190.818 86.6649 190.977 88.3814 190.101 89.6533L181.08 102.748C180.449 103.664 180.34 104.842 180.792 105.859L187.253 120.388C187.88 121.799 187.408 123.457 186.132 124.327L172.991 133.279C172.071 133.905 171.544 134.964 171.598 136.075L172.374 151.957C172.449 153.5 171.41 154.875 169.906 155.225L154.418 158.825C153.335 159.077 152.46 159.874 152.109 160.93L147.095 176.019C146.608 177.485 145.143 178.392 143.614 178.175L127.871 175.937C126.77 175.781 125.667 176.208 124.958 177.066L114.832 189.325C113.848 190.516 112.154 190.833 110.806 190.078L96.9353 182.304C95.965 181.761 94.7816 181.761 93.8113 182.304L79.9402 190.078C78.5929 190.833 76.8984 190.516 75.9148 189.325L65.7885 177.066C65.0801 176.208 63.9767 175.781 62.8754 175.937L47.1329 178.175C45.6039 178.392 44.1382 177.485 43.6512 176.019L38.6372 160.93C38.2865 159.874 37.412 159.077 36.3285 158.825L20.8408 155.225C19.3365 154.875 18.2976 153.5 18.373 151.957L19.1485 136.075C19.2027 134.964 18.6753 133.905 17.756 133.279L4.61471 124.327C3.33829 123.457 2.86653 121.799 3.49403 120.388L9.95435 105.859C10.4063 104.842 10.2971 103.664 9.66611 102.748L0.646055 89.6533C-0.230072 88.3814 -0.0710154 86.6649 1.0239 85.5757L12.2965 74.3614C13.0851 73.5769 13.4089 72.4387 13.1514 71.3566L9.47083 55.8878C9.11333 54.3853 9.88172 52.8421 11.2962 52.222L25.8587 45.8371C26.8774 45.3904 27.5905 44.4461 27.7413 43.3441L29.8972 27.5902C30.1066 26.06 31.3806 24.8987 32.9236 24.8314L48.8091 24.1382C49.9204 24.0897 50.9265 23.4668 51.4652 22.4936L59.1665 8.58241C59.9145 7.2312 61.522 6.60847 62.9851 7.10308L78.0484 12.1953C79.1021 12.5515 80.2653 12.3341 81.1192 11.6212L93.3257 1.43144Z" fill="#FB941B"/>
</svg>
