<svg xmlns="http://www.w3.org/2000/svg" width="32.579" height="32.579" viewBox="0 0 32.579 32.579">
  <path id="chart-mixed-svgrepo-com" d="M3,31.579V25.228m9.526,6.351v-12.7m9.526,12.7V22.052m9.526,9.526V15.7M11.636,7.066a2.382,2.382,0,0,0,3.368,0m-3.368,0a2.382,2.382,0,1,1,3.368,0m-3.368,0-4.57,4.57m0,0a2.382,2.382,0,1,0,.7,1.684A2.374,2.374,0,0,0,7.066,11.636ZM15,7.066l4.57,4.57m0,0a2.382,2.382,0,1,0,3.368,0m-3.368,0a2.382,2.382,0,0,1,3.368,0m0,0,4.57-4.57m0,0a2.382,2.382,0,1,0-.7-1.684A2.374,2.374,0,0,0,27.513,7.066Z" transform="translate(-1 -1)" fill="none" stroke="#000" stroke-linecap="round" stroke-linejoin="round" stroke-width="4"/>
</svg>
