<svg xmlns="http://www.w3.org/2000/svg" width="32" height="32" viewBox="0 0 32 32">
  <g id="course-tile-sort-svgrepo-com" transform="translate(0 0.001)" fill="none">
    <path d="M10.666,32H1.778A1.778,1.778,0,0,1,0,30.222V21.333a1.778,1.778,0,0,1,1.778-1.778h8.888a1.778,1.778,0,0,1,1.778,1.778v8.889A1.778,1.778,0,0,1,10.666,32Zm19.555,0H21.332a1.778,1.778,0,0,1-1.778-1.778V21.333a1.778,1.778,0,0,1,1.778-1.778h8.888A1.778,1.778,0,0,1,32,21.333v8.889A1.778,1.778,0,0,1,30.221,32ZM10.666,12.445H1.778A1.778,1.778,0,0,1,0,10.667V1.778A1.778,1.778,0,0,1,1.778,0h8.888a1.778,1.778,0,0,1,1.778,1.778v8.889A1.778,1.778,0,0,1,10.666,12.445ZM31.48,9.316,25.2,15.6a1.778,1.778,0,0,1-2.514,0L16.4,9.316a1.778,1.778,0,0,1,0-2.512L22.683.52A1.778,1.778,0,0,1,25.2.52L31.481,6.8a1.778,1.778,0,0,1,0,2.514Z" stroke="none"/>
    <path d="M 28.99859428405762 28.99921607971191 L 28.99859428405762 22.55531692504883 L 22.55469512939453 22.55531692504883 L 22.55469512939453 28.99921607971191 L 28.99859428405762 28.99921607971191 M 9.443894386291504 28.99921607971191 L 9.443894386291504 22.55531692504883 L 3.000004768371582 22.55531692504883 L 3.000004768371582 28.99921607971191 L 9.443894386291504 28.99921607971191 M 23.93850898742676 12.61412143707275 L 28.49370574951172 8.058925628662109 L 23.94016265869141 3.505383729934692 L 19.38432312011719 8.059933662414551 L 23.93850898742676 12.61412143707275 M 9.443894386291504 9.444516181945801 L 9.443894386291504 3.000616073608398 L 3.000004768371582 3.000616073608398 L 3.000004768371582 9.444516181945801 L 9.443894386291504 9.444516181945801 M 30.22089576721191 31.99921607971191 L 21.33239555358887 31.99921607971191 C 20.35059547424316 31.99921607971191 19.55469512939453 31.20330619812012 19.55469512939453 30.22151565551758 L 19.55469512939453 21.33301544189453 C 19.55469512939453 20.35121536254883 20.35060501098633 19.55531692504883 21.33239555358887 19.55531692504883 L 30.22089576721191 19.55531692504883 C 31.20268440246582 19.55531692504883 31.99859428405762 20.35121536254883 31.99859428405762 21.33301544189453 L 31.99859428405762 30.22151565551758 C 31.99859428405762 31.20330619812012 31.20268440246582 31.99921607971191 30.22089576721191 31.99921607971191 Z M 10.66620445251465 31.99921607971191 L 1.777704834938049 31.99921607971191 C 0.7959048748016357 31.99921607971191 4.851684479945106e-06 31.20330619812012 4.851684479945106e-06 30.22151565551758 L 4.851684479945106e-06 21.33301544189453 C 4.851684479945106e-06 20.35121536254883 0.7959048748016357 19.55531692504883 1.777704834938049 19.55531692504883 L 10.66620445251465 19.55531692504883 C 11.64799499511719 19.55531692504883 12.4438943862915 20.35121536254883 12.4438943862915 21.33301544189453 L 12.4438943862915 30.22151565551758 C 12.4438943862915 31.20330619812012 11.64799499511719 31.99921607971191 10.66620445251465 31.99921607971191 Z M 23.93850517272949 16.12041091918945 C 23.4836368560791 16.12041091918945 23.02877044677734 15.94691562652588 22.68167495727539 15.59992599487305 L 16.39750480651855 9.315755844116211 C 15.70470523834229 8.62177562713623 15.70470523834229 7.497856140136719 16.39750480651855 6.803865909576416 L 22.6834545135498 0.519696056842804 C 23.37764549255371 -0.1742839515209198 24.5029354095459 -0.1742839515209198 25.19711494445801 0.519696056842804 L 31.48128509521484 6.803865909576416 C 32.17429351806641 7.499045848846436 32.17269515991211 8.624325752258301 31.47772407531738 9.317536354064941 L 31.47951507568359 9.315755844116211 L 25.19534492492676 15.59992599487305 C 24.84824562072754 15.94691562652588 24.39337539672852 16.12041091918945 23.93850517272949 16.12041091918945 Z M 10.66620445251465 12.4445161819458 L 1.777704834938049 12.4445161819458 C 0.7959048748016357 12.4445161819458 4.851684479945106e-06 11.648606300354 4.851684479945106e-06 10.66681575775146 L 4.851684479945106e-06 1.778316020965576 C 4.851684479945106e-06 0.7965160608291626 0.7959048748016357 0.0006160492193885148 1.777704834938049 0.0006160492193885148 L 10.66620445251465 0.0006160492193885148 C 11.64799499511719 0.0006160492193885148 12.4438943862915 0.7965160608291626 12.4438943862915 1.778316020965576 L 12.4438943862915 10.66681575775146 C 12.4438943862915 11.648606300354 11.64799499511719 12.4445161819458 10.66620445251465 12.4445161819458 Z" stroke="none" fill="#000"/>
  </g>
</svg>
