<svg xmlns="http://www.w3.org/2000/svg" width="33.251" height="33.255" viewBox="0 0 33.251 33.255">
  <g id="Group_191" data-name="Group 191" transform="translate(0.5 0.537)">
    <g id="Group_192" data-name="Group 192">
      <path id="Path_309" data-name="Path 309" d="M19.822,32.218c-1.958,0-4.755-1.39-6.959-8.014L11.65,20.552,8,19.342c-6.609-2.192-8-4.98-8-6.933s1.385-4.754,8.014-6.97L22.246.689c3.543-1.18,6.492-.837,8.3.968s2.161,4.76.985,8.314L26.78,24.2c-2.2,6.623-5,8.013-6.959,8.013M13.995,19.894l1.175,3.543c1.558,4.681,3.425,6.349,4.652,6.349s3.094-1.668,4.652-6.35L29.223,9.2c.858-2.594.715-4.718-.395-5.826S25.6,2.135,23.015,3L8.784,7.745C4.1,9.312,2.43,11.18,2.432,12.406s1.667,3.08,6.336,4.628l3.487,1.158L20.813,9.9a1.217,1.217,0,0,1,1.693,1.748Z" transform="translate(0 0)" stroke="#000" stroke-width="1"/>
    </g>
  </g>
</svg>
