<svg xmlns="http://www.w3.org/2000/svg" width="42.106" height="32" viewBox="0 0 42.106 32">
  <path id="marketing-svgrepo-com" d="M37.314,2.424a3.273,3.273,0,0,0-3.064-.262L18.094,8.526a3.2,3.2,0,0,1-1.2.236H6.546a3.273,3.273,0,0,0-3.273,3.273V12.3H0v7.856H3.273v.34a3.273,3.273,0,0,0,3.273,3.195l3.928,8.327A3.3,3.3,0,0,0,13.433,33.9h1.65a3.273,3.273,0,0,0,3.247-3.273V24l15.921,6.363a3.326,3.326,0,0,0,1.231.236,3.378,3.378,0,0,0,1.833-.576,3.273,3.273,0,0,0,1.44-2.619V5.122a3.273,3.273,0,0,0-1.44-2.7Zm-22.258,9.61v8.458H6.546V12.035Zm0,18.592h-1.65l-3.221-6.939h4.871ZM19.3,20.885a6,6,0,0,0-.969-.393V11.851a5.918,5.918,0,0,0,.969-.288L35.481,5.122V27.327Zm19.534-7.934V19.5a3.273,3.273,0,1,0,0-6.546Z" transform="translate(0 -1.9)"/>
</svg>
