<svg xmlns="http://www.w3.org/2000/svg" width="32.291" height="33.5" viewBox="0 0 32.291 33.5">
  <path id="memo-svgrepo-com" d="M11.778,11.472H27.513M11.778,18.25H27.513M11.778,25.028H23.487M10.422,33.5H28.868c1.9,0,2.847,0,3.572-.369a3.388,3.388,0,0,0,1.481-1.481c.369-.725.369-1.674.369-3.572V8.422c0-1.9,0-2.847-.369-3.572A3.388,3.388,0,0,0,32.44,3.369C31.715,3,30.766,3,28.868,3H10.422c-1.9,0-2.847,0-3.572.369A3.389,3.389,0,0,0,5.369,4.85C5,5.575,5,6.524,5,8.422V28.078c0,1.9,0,2.847.369,3.572A3.388,3.388,0,0,0,6.85,33.131C7.575,33.5,8.524,33.5,10.422,33.5Z" transform="translate(-3.5 -1.5)" fill="none" stroke="#000" stroke-linecap="round" stroke-linejoin="round" stroke-width="3"/>
</svg>
