<svg xmlns="http://www.w3.org/2000/svg" width="62" height="62" viewBox="0 0 62 62">
  <g id="Group_276" data-name="Group 276" transform="translate(-298 -379)">
    <g id="Component_133_11" data-name="Component 133 – 11" transform="translate(298 379)">
      <circle id="Ellipse_68" data-name="Ellipse 68" cx="31" cy="31" r="31" fill="#ececec"/>
    </g>
    <g id="Group_275" data-name="Group 275" transform="translate(318 396.753)">
      <path id="Path_397" data-name="Path 397" d="M2462.313,34.438a5.864,5.864,0,0,0,2.768,1.428,13.71,13.71,0,0,0,3.073.144c.042,0,.114-.077.12-.125.018-.134,0-.271.012-.407a1,1,0,0,1,.933-.963.978.978,0,0,1,1.065.831,6.442,6.442,0,0,1,.048.668c.056,0,.113.011.171.011.579,0,1.158,0,1.738,0,.632,0,1.265-.01,1.9-.01.124,0,.169-.046.159-.168a2.583,2.583,0,0,1,0-.337,1.018,1.018,0,0,1,1.9-.494,1.405,1.405,0,0,1,.138.827c-.009.132.033.167.151.17a12.11,12.11,0,0,0,3-.159,4.978,4.978,0,0,0,3.863-3.468,8.287,8.287,0,0,0,.261-1.3,4.123,4.123,0,0,0-.122-1.877,3.777,3.777,0,0,0-3.586-2.67c-.969-.011-1.938,0-2.908,0-.144,0-.2-.035-.189-.188.014-.2.008-.4,0-.6a3.228,3.228,0,0,0-2.748-3.143c-1.033-.115-2.087-.052-3.131-.065a1.887,1.887,0,0,0-.334.034,3.319,3.319,0,0,0-2.782,3.312c0,.211,0,.421,0,.649h-.35c-1.022.007-2.049-.04-3.066.034a3.72,3.72,0,0,0-3.43,3.706,6.858,6.858,0,0,0,.6,2.928,3.5,3.5,0,0,0,.752,1.23m8.474-8.611a.27.27,0,0,1,.281-.3c.076,0,.153-.017.229-.017q1.046,0,2.091,0c.357,0,.412.054.426.406a4.863,4.863,0,0,1,0,.513.153.153,0,0,1-.111.1c-.467.007-.933,0-1.4,0v0c-.455,0-.91,0-1.365,0-.116,0-.159-.029-.155-.147.008-.189,0-.378.006-.567" transform="translate(-2460.928 -22.539)"/>
      <path id="Path_398" data-name="Path 398" d="M2482.774,241.186c-.062.048-.106.084-.152.118-.252.185-.495.386-.759.552a7.548,7.548,0,0,1-3.928,1.144c-.626.014-1.253.013-1.879.014-.146,0-.187.041-.17.2a1.15,1.15,0,0,1-.325,1.04,1.026,1.026,0,0,1-1.7-.732c-.01-.158,0-.316,0-.493h-3.979c0,.186.007.351,0,.516a1,1,0,0,1-1.03.955.958.958,0,0,1-.994-.942c-.009-.169,0-.34,0-.524-.067-.006-.125-.015-.182-.015-.384,0-.769.007-1.152-.012-.654-.032-1.313-.042-1.959-.136a7.644,7.644,0,0,1-3.319-1.34c-.089-.062-.184-.115-.274-.171a16.12,16.12,0,0,0-.465,4.653h.527c.969,0,1.939-.01,2.908,0a3.868,3.868,0,0,1,2.779,1.182,4.157,4.157,0,0,1,1.163,3.114c-.013,1.672-.011,3.345-.01,5.017a.188.188,0,0,0,.107.14,14.188,14.188,0,0,0,3.139.516,14.592,14.592,0,0,0,4.579-.489.2.2,0,0,0,.175-.234c-.01-.437-.018-.875-.017-1.312,0-1.389-.026-2.78.03-4.166a3.945,3.945,0,0,1,3.946-3.77c.94-.007,1.879,0,2.819,0h.565a16.112,16.112,0,0,0-.438-4.824" transform="translate(-2460.492 -227.513)"/>
      <path id="Path_399" data-name="Path 399" d="M2740.709,350.572a1.958,1.958,0,0,0-1.943,2c0,1.478,0,2.955,0,4.433a1.683,1.683,0,0,0,.023.194c.055-.014.089-.019.122-.031a6.443,6.443,0,0,0,2.349-1.447,10.253,10.253,0,0,0,2.4-3.763,4.534,4.534,0,0,0,.383-1.377.579.579,0,0,0-.088-.014c-1.082,0-2.163-.018-3.244,0" transform="translate(-2721.362 -330.048)"/>
      <path id="Path_400" data-name="Path 400" d="M2466.739,351.484a1.938,1.938,0,0,0-1.626-.86c-1.045-.013-2.092,0-3.137,0-.046,0-.092.006-.151.01.282,2.937,2.624,5.406,5.238,6.59a1.168,1.168,0,0,0,.021-.155c0-1.513,0-3.026-.005-4.539a1.794,1.794,0,0,0-.34-1.046" transform="translate(-2461.741 -330.101)"/>
    </g>
  </g>
</svg>
