<svg xmlns="http://www.w3.org/2000/svg" width="62" height="62" viewBox="0 0 62 62">
  <g id="Group_274" data-name="Group 274" transform="translate(-8 -379)">
    <g id="Component_133_10" data-name="Component 133 – 10" transform="translate(8 379)">
      <circle id="Ellipse_68" data-name="Ellipse 68" cx="31" cy="31" r="31" fill="#ececec"/>
    </g>
    <path id="Path_396" data-name="Path 396" d="M26.849,29.757c.125-.226.233-.412.333-.6A3.878,3.878,0,0,1,29.6,27.137a4.578,4.578,0,0,1,2.806.087A4.858,4.858,0,0,1,35.2,29.565a5.065,5.065,0,0,1,.619,2.835,20.826,20.826,0,0,1-.318,2.582,9.454,9.454,0,0,1-1.72,3.858,10.378,10.378,0,0,1-3.418,2.888,17.847,17.847,0,0,1-4.966,1.731,29.586,29.586,0,0,1-4.944.6c-1.5.052-3.008.078-4.51.031a31.478,31.478,0,0,1-5.8-.694,16.9,16.9,0,0,1-5.149-1.939,9.774,9.774,0,0,1-4.28-5.063A10.993,10.993,0,0,1,.1,33.617C.052,33.1,0,32.587,0,32.072a5.02,5.02,0,0,1,4.287-5.057A4.063,4.063,0,0,1,8.633,29.14a6.614,6.614,0,0,0,.335.6c.04-.165.088-.328.119-.494.294-1.615.574-3.234.88-4.847.257-1.353.509-2.709.828-4.049a7.439,7.439,0,0,1,2.3-3.916,3.506,3.506,0,0,1,1.674-.89,1.714,1.714,0,0,1,1.13.173c.461.24.9.531,1.339.805.184.114.364.238.539.365a.226.226,0,0,0,.3,0c.367-.264.734-.529,1.108-.782a3.359,3.359,0,0,1,1.282-.556,2.078,2.078,0,0,1,1.186.168,4.976,4.976,0,0,1,2.124,1.795,8.564,8.564,0,0,1,1.395,3.427q.672,3.463,1.332,6.929c.113.593.2,1.191.3,1.786a.816.816,0,0,0,.042.108m-17.826.054-.075.05c-.02.073-.045.144-.059.218-.071.4-.13.8-.209,1.2a4.729,4.729,0,0,0-.065,1.543,6.617,6.617,0,0,0,1.924,3.815,5.835,5.835,0,0,0,3.33,1.545,20.7,20.7,0,0,0,3.23.24A24.237,24.237,0,0,0,22.12,38.1a7.727,7.727,0,0,0,2.331-.818,5.863,5.863,0,0,0,2.278-2.437,4.29,4.29,0,0,0,.558-2.659c-.08-.587-.2-1.168-.3-1.752-.033-.188-.069-.375-.1-.563a1.194,1.194,0,0,0-.207.261,6.261,6.261,0,0,1-2.943,2.292,13.606,13.606,0,0,1-4.406.925,20.071,20.071,0,0,1-4.48-.183,11.029,11.029,0,0,1-3.2-.971,5.813,5.813,0,0,1-2.564-2.259c-.023-.04-.039-.085-.058-.128" transform="translate(21.085 380.187)"/>
  </g>
</svg>
