<svg xmlns="http://www.w3.org/2000/svg" width="62" height="62" viewBox="0 0 62 62">
  <g id="Group_282" data-name="Group 282" transform="translate(-366 -379)">
    <g id="Component_133_15" data-name="Component 133 – 15" transform="translate(366 379)">
      <circle id="Ellipse_68" data-name="Ellipse 68" cx="31" cy="31" r="31" fill="#ececec"/>
    </g>
    <path id="Path_408" data-name="Path 408" d="M3513.777,24.357a26.372,26.372,0,0,0-.347-3.538,18.882,18.882,0,0,0-1.147-4.125,13.224,13.224,0,0,0-3.936-5.3,14.169,14.169,0,0,0-4.508-2.547.531.531,0,0,1-.1-.061c.059-.062.1-.108.148-.156a4.184,4.184,0,0,0,1.083-3.062,6.228,6.228,0,0,0-.729-2.732,5.6,5.6,0,0,0-1.919-2.185A3.655,3.655,0,0,0,3499.431.1a4.186,4.186,0,0,0-2.08,1.2,6.243,6.243,0,0,0-1.825,4.711,3.975,3.975,0,0,0,1.021,2.574c.053.06.1.127.144.185-.02.026-.024.036-.031.039-.052.023-.1.047-.156.066a14.5,14.5,0,0,0-3.515,1.862,13.428,13.428,0,0,0-3.933,4.237,16.368,16.368,0,0,0-1.924,5.4,30.617,30.617,0,0,0-.464,5.48,4.658,4.658,0,0,0,.567,2.16.563.563,0,0,0,.563.338c.7-.009,1.4-.011,2.1,0a.627.627,0,0,0,.626-.382,4.5,4.5,0,0,0,.549-2.11,15.257,15.257,0,0,1,.322-3.084,11.123,11.123,0,0,1,1.535-3.8c.18-.28.395-.539.593-.808l.069.021c0,.1.012.2.012.295,0,1.045,0,2.091,0,3.136a24,24,0,0,0,.227,3.492,8.335,8.335,0,0,0,.959,2.878.652.652,0,0,0,.639.365q4.817-.01,9.634,0a.636.636,0,0,0,.618-.351,7.535,7.535,0,0,0,.786-1.989,15.617,15.617,0,0,0,.383-3.5c.018-1.281.009-2.561.012-3.842,0-.156.01-.313.016-.469l.069-.021c.085.1.176.192.256.294a9.869,9.869,0,0,1,1.145,1.974,12.319,12.319,0,0,1,.981,3.784c.063.551.08,1.108.088,1.663a4.657,4.657,0,0,0,.559,2.108.582.582,0,0,0,.586.349q1.062-.015,2.125,0a.576.576,0,0,0,.564-.34,4.332,4.332,0,0,0,.569-2.188c-.007-.489-.025-.978-.041-1.467m-15.6-2.087q-.214,1.264-.432,2.527a1.884,1.884,0,0,1-.053.247.61.61,0,0,1-.732.461.6.6,0,0,1-.519-.691c.042-.373.117-.742.18-1.112q.216-1.277.435-2.555a1.618,1.618,0,0,1,.055-.247.612.612,0,0,1,.735-.419.636.636,0,0,1,.508.7c-.052.323-.112.7-.176,1.083m.676-15.083a2.5,2.5,0,0,1,.048-3.1,1.764,1.764,0,0,1,2.836.195,2.322,2.322,0,0,1,.413,1.232,2.432,2.432,0,0,1-.627,1.8,1.726,1.726,0,0,1-2.67-.118m4.643,18.324a.609.609,0,0,1-.715-.492c-.089-.433-.151-.871-.224-1.307q-.184-1.1-.365-2.2a2.717,2.717,0,0,1-.048-.42.591.591,0,0,1,.485-.609.613.613,0,0,1,.746.4,8.471,8.471,0,0,1,.179.856c.154.928.3,1.857.449,2.786.018.111.027.224.033.281a.627.627,0,0,1-.539.7" transform="translate(-3103.668 396.001)"/>
  </g>
</svg>
