<svg xmlns="http://www.w3.org/2000/svg" width="62" height="62" viewBox="0 0 62 62">
  <g id="Group_278" data-name="Group 278" transform="translate(-224 -379)">
    <g id="Component_133_12" data-name="Component 133 – 12" transform="translate(224 379)">
      <circle id="Ellipse_68" data-name="Ellipse 68" cx="31" cy="31" r="31" fill="#ececec"/>
    </g>
    <g id="Group_277" data-name="Group 277" transform="translate(238 396)">
      <path id="Path_401" data-name="Path 401" d="M1848.477,82.83a6.788,6.788,0,0,0-.116-.93c-.085-.46-.18-.92-.3-1.373a.924.924,0,0,0-.664-.674c-1.287-.422-2.562-.884-3.855-1.29a3.169,3.169,0,0,1-1.548-.949c-.29-.341-.674-.609-.739-1.136-.249.118-.465.217-.678.321-.323.158-.636.339-.967.475a.7.7,0,0,1-.982-.709.687.687,0,0,1,.39-.566c.36-.187.722-.369,1.084-.552l.626-.319-.315-.92a3.486,3.486,0,0,0-.338.1c-.417.173-.83.357-1.249.526a1.4,1.4,0,0,1-.425.108.647.647,0,0,1-.674-.464.7.7,0,0,1,.263-.8,2.018,2.018,0,0,1,.32-.162c.347-.149.7-.292,1.044-.441.176-.075.348-.157.538-.243l-.4-1.024c-.161.053-.293.094-.422.141-.433.157-.864.321-1.3.471a1.509,1.509,0,0,1-.457.093.676.676,0,0,1-.609-.994.761.761,0,0,1,.453-.379c.5-.186,1-.368,1.506-.552.1-.037.2-.079.315-.123a3.822,3.822,0,0,0-.381-1.036c-.113.032-.194.05-.271.078-.415.153-.827.314-1.244.462a3.03,3.03,0,0,1-.534.136.682.682,0,0,1-.685-.945.806.806,0,0,1,.476-.431q.794-.285,1.588-.569c.187-.066.2-.087.146-.275a2.1,2.1,0,0,0-.1-.226,2.907,2.907,0,0,1-.293-.944,12.61,12.61,0,0,1,.062-2.809c.055-.372.137-.739.213-1.107.031-.151.092-.3.116-.45a1.377,1.377,0,0,0-1.568-1.559c-.346.053-.694.1-1.037.169a36.633,36.633,0,0,0-4.319,1.178.672.672,0,0,0-.543.547,1.523,1.523,0,0,1-.074.236c-.237.716-.477,1.431-.709,2.148a.745.745,0,0,1-.506.539,16.121,16.121,0,0,1-3.186.679,8.536,8.536,0,0,1-5.173-1.182,9.764,9.764,0,0,1-2.153-1.717c-.188-.2-.381-.4-.594-.618-.171.182-.327.336-.468.5a12.155,12.155,0,0,0-1.633,2.552,26.244,26.244,0,0,0-2.091,6.149c-.165.774-.159.792.34,1.4a16.654,16.654,0,0,0,2.514,2.518,16.237,16.237,0,0,0,2.668,1.765c.737.381,1.465.779,2.2,1.171.836.449,1.668.9,2.506,1.349,1.042.553,2.088,1.1,3.133,1.648.62.325,1.241.648,1.861.973.579.3,1.156.61,1.734.913.49.257.983.506,1.47.767.47.252.932.518,1.4.771s.943.5,1.414.746a8.2,8.2,0,0,0,.8.429,9.355,9.355,0,0,0,1.705.552,6.919,6.919,0,0,0,2.473.092c1.081-.186,2.172-.315,3.258-.477.683-.1,1.372-.187,2.043-.342a4.125,4.125,0,0,0,2.123-1.178,2.953,2.953,0,0,0,.817-2.243m-1.373.431a1.756,1.756,0,0,1-.8,1.208,3.983,3.983,0,0,1-1.686.582c-1.486.225-2.977.422-4.462.652a5.945,5.945,0,0,1-3.7-.618c-2.179-1.123-4.331-2.3-6.5-3.45-1.6-.848-3.2-1.688-4.792-2.535-1.832-.972-3.668-1.938-5.493-2.923a13.457,13.457,0,0,1-4.192-3.548.529.529,0,0,1-.111-.5,29.305,29.305,0,0,1,1.328-4.32c.048-.118.107-.232.17-.367.1.043.165.076.234.1a8.352,8.352,0,0,1,3.134,2.208,12.829,12.829,0,0,1,1.989,2.875,11.677,11.677,0,0,0,2,2.831,7.4,7.4,0,0,0,1.855,1.333c.688.354,1.364.733,2.057,1.078.353.176.734.295,1.1.45a3.7,3.7,0,0,0,1.656.228,7.267,7.267,0,0,1,.884.014,3.5,3.5,0,0,1,1.789.812,5.073,5.073,0,0,1,1.143,1.262,9,9,0,0,0,2.575,2.55c.4.257.826.484,1.238.727a.628.628,0,0,0,.553.044c.491-.16.988-.3,1.485-.438a7.646,7.646,0,0,1,2.114-.2c.96.008,1.919,0,2.879-.007a4.642,4.642,0,0,0,1.23-.17c.1-.027.2-.045.323-.074a1.308,1.308,0,0,1,0,.19" transform="translate(-1813.924 -59.411)"/>
      <path id="Path_402" data-name="Path 402" d="M1902.4,44.136a6.1,6.1,0,0,0,1.147.285,9.106,9.106,0,0,0,2.645-.039.521.521,0,0,0,.161-.031c.043-.022.1-.072.1-.112s-.05-.091-.092-.115a.751.751,0,0,0-.183-.061,4.611,4.611,0,0,1-1.159-.512,3.9,3.9,0,0,1-1.329-1.182,4.813,4.813,0,0,1-.788-2.575,1.476,1.476,0,0,0-.053-.379.52.52,0,0,0-.448-.394,1.162,1.162,0,0,0-.622.082,8.057,8.057,0,0,0-1.948,1.142c-.429.33-.838.685-1.28,1.05a2.568,2.568,0,0,0,.211.316,8.983,8.983,0,0,0,3.637,2.525" transform="translate(-1893.259 -39.008)"/>
    </g>
  </g>
</svg>
