<svg xmlns="http://www.w3.org/2000/svg" width="62" height="62" viewBox="0 0 62 62">
  <g id="Group_279" data-name="Group 279" transform="translate(-150 -379)">
    <g id="Component_133_13" data-name="Component 133 – 13" transform="translate(150 379)">
      <circle id="Ellipse_68" data-name="Ellipse 68" cx="31" cy="31" r="31" fill="#ececec"/>
    </g>
    <path id="Path_403" data-name="Path 403" d="M1285.319,20.132a5.8,5.8,0,0,0-.641-2.681q-1.974-3.928-3.933-7.864a2.587,2.587,0,0,0-1.436-1.309c-.439-.17-.881-.33-1.321-.5-.541-.205-1.081-.413-1.63-.623.413-.59.817-1.142,1.191-1.713a1.16,1.16,0,0,0,.033-1.168,1.248,1.248,0,0,0-.777-.65,22.852,22.852,0,0,0-2.885-.841,16.359,16.359,0,0,0-2.422-.4,17.2,17.2,0,0,0-5.065.376,28.953,28.953,0,0,0-3.09.9,1.239,1.239,0,0,0-.706,1.585,3.877,3.877,0,0,0,.357.637c.28.414.575.817.89,1.259-.248.1-.453.2-.662.278q-1.12.422-2.243.834a2.574,2.574,0,0,0-1.481,1.346c-.183.376-.365.753-.552,1.128q-.92,1.852-1.842,3.7c-.552,1.105-1.111,2.207-1.659,3.315a4.259,4.259,0,0,0-.459,1.887c0,.919-.014,1.838-.016,2.757q0,2.788,0,5.575c0,.665.177.837.836.839q1.045,0,2.089,0a1.464,1.464,0,0,0,.334-.033.552.552,0,0,0,.471-.56c.01-.163.006-.327.006-.49q0-3.538-.007-7.076a1.073,1.073,0,0,1,.161-.575c.4-.676.788-1.359,1.178-2.041.284-.5.563-1,.844-1.493a1.1,1.1,0,0,1,.117-.18.179.179,0,0,1,.271-.037c0,.091,0,.2,0,.312q0,7.168.008,14.336c0,.133,0,.266.008.4a1.171,1.171,0,0,0,1.064,1.19,1.837,1.837,0,0,0,.306.02l3.748,0,7.465,0c1.239,0,2.478-.014,3.717,0a1.37,1.37,0,0,0,1.442-1.495c-.019-.407-.017-.816-.02-1.224-.007-1.051-.014-2.1-.016-3.154q0-2.465,0-4.93c0-.857,0-1.714,0-2.572s.023-1.735.043-2.6a3.224,3.224,0,0,1,.065-.425c.357.543.658,1.084.967,1.62.33.575.657,1.153,1,1.718a2.719,2.719,0,0,1,.489,1.635c-.046.732-.01,1.47-.01,2.2q0,2.343,0,4.687a.671.671,0,0,0,.238.62.786.786,0,0,0,.491.139c.768,0,1.536.006,2.3,0a.664.664,0,0,0,.734-.745c0-.051,0-.1,0-.153,0-2.594-.01-5.187,0-7.781m-19.01,4.717a3.177,3.177,0,0,1-.034.457,1.183,1.183,0,0,1-1.027.989,1.28,1.28,0,0,1-1.325-.684,1.851,1.851,0,0,1-.176-.827c.01-1.112,0-2.224.011-3.335a2.028,2.028,0,0,1,.118-.686,1.243,1.243,0,0,1,1.359-.771,1.187,1.187,0,0,1,1.053,1.035,2.656,2.656,0,0,1,.027.426c0,.561,0,1.122,0,1.683h-.005c0,.571,0,1.142,0,1.714m3.844-13.363c-.1-.118-.194-.207-.268-.309q-1.153-1.6-2.3-3.212c-.575-.8-1.149-1.608-1.733-2.427a13.2,13.2,0,0,1,8.554.023l-4.251,5.925m6.343,13.337a2.125,2.125,0,0,1-.112.688,1.262,1.262,0,0,1-1.411.778,1.2,1.2,0,0,1-1.034-1.161c-.019-.673,0-1.347,0-2.021h-.01c0-.5,0-1,0-1.5,0-.173,0-.348.017-.52a1.135,1.135,0,0,1,.8-1.025,1.288,1.288,0,0,1,1.346.261,1.232,1.232,0,0,1,.418.979c-.007,1.174,0,2.348-.009,3.521" transform="translate(-1088.967 392.652)"/>
  </g>
</svg>
