<svg xmlns="http://www.w3.org/2000/svg" width="62" height="62" viewBox="0 0 62 62">
  <g id="Group_283" data-name="Group 283" transform="translate(-181 -454)">
    <g id="Component_133_16" data-name="Component 133 – 16" transform="translate(181 454)">
      <circle id="Ellipse_68" data-name="Ellipse 68" cx="31" cy="31" r="31" fill="#ececec"/>
    </g>
    <path id="Path_409" data-name="Path 409" d="M2934.451,44.353c-.555,0-1.087.005-1.619,0a1.5,1.5,0,0,1-1.573-1.286q-.5-2.51-1-5.021a1.454,1.454,0,0,1,.731-1.606q1.634-.988,3.278-1.963c.562-.335,1.12-.676,1.691-.994a7.344,7.344,0,0,1,3.392-.893c.267-.008.534,0,.8,0a.246.246,0,0,1,.245.148,6.069,6.069,0,0,0,2.028,2.132,4.351,4.351,0,0,0,4.985-.229,6.368,6.368,0,0,0,1.707-1.923.286.286,0,0,1,.2-.12,7.967,7.967,0,0,1,4.472,1.026c1.542.917,3.08,1.841,4.622,2.76a1.481,1.481,0,0,1,.846,1.268,4.645,4.645,0,0,1-.132.942c-.292,1.493-.595,2.984-.888,4.477a1.472,1.472,0,0,1-1.452,1.273c-.538.024-1.077.012-1.616.017-.034,0-.069,0-.12.007,0,.051-.009.1-.009.15q0,5.745,0,11.489a2.913,2.913,0,0,1-1.97,2.877,2.988,2.988,0,0,1-.968.165q-6.684.015-13.368,0c-.469,0-.938.006-1.408,0a2.894,2.894,0,0,1-2.842-2.661c-.02-.242-.03-.486-.03-.728q0-5.536,0-11.072Z" transform="translate(-2733.222 439.417)"/>
  </g>
</svg>
