<svg xmlns="http://www.w3.org/2000/svg" width="62" height="62" viewBox="0 0 62 62">
  <g id="Group_281" data-name="Group 281" transform="translate(-78 -379)">
    <g id="Component_133_14" data-name="Component 133 – 14" transform="translate(78 379)">
      <circle id="Ellipse_68" data-name="Ellipse 68" cx="31" cy="31" r="31" fill="#ececec"/>
    </g>
    <g id="Group_280" data-name="Group 280" transform="translate(95 398)">
      <path id="Path_404" data-name="Path 404" d="M722.189,118.443a10.448,10.448,0,0,1-4.9-2.629,8.765,8.765,0,0,1-2.5-4.7c-.076-.449-.133-.9-.183-1.354-.031-.283-.034-.569-.049-.85-.226-.058-9.954-.073-10.214-.014,0,.08-.008.149-.01.218a11.336,11.336,0,0,1-.179,1.892,10.066,10.066,0,0,1-.815,2.458,8.757,8.757,0,0,1-1.391,2.018,9.483,9.483,0,0,1-2.614,1.988,9.668,9.668,0,0,1-3.243,1.092,2.687,2.687,0,0,0-.282.068c0,.109,0,.2,0,.292q0,1.763,0,3.527,0,2.413,0,4.826c0,.07,0,.139,0,.209a.591.591,0,0,0,.612.644c.286.018.574.01.861.01q3.339,0,6.678,0c1.016,0,2.032,0,3.048-.016.525-.007.645-.123.752-.632q.18-.85.36-1.7l1.2-5.646c.034-.161.071-.322.107-.483l.053,0c.067.281.14.562.2.845.169.793.331,1.588.5,2.382.2.968.414,1.935.619,2.9.128.6.248,1.211.376,1.816a.6.6,0,0,0,.635.527l.093,0,1.675,0q3.281,0,6.562,0c.783,0,1.567-.006,2.35-.022a.567.567,0,0,0,.622-.558,1.32,1.32,0,0,0,.012-.208q0-4.246,0-8.492c0-.076-.007-.151-.011-.232-.319-.063-.624-.112-.924-.185" transform="translate(-695.803 -104.318)"/>
      <path id="Path_405" data-name="Path 405" d="M714.6,39.608h16.658q3.734,0,7.468,0c.143,0,.287-.014.43-.021.006-.079.012-.125.012-.171q0-1.253,0-2.505a1.273,1.273,0,0,0-.011-.185.519.519,0,0,0-.42-.468,1.692,1.692,0,0,0-.368-.036q-5.991,0-11.982,0H715.06a2.5,2.5,0,0,0-.417.026.5.5,0,0,0-.462.5,2.59,2.59,0,0,0-.012.278q0,1.183,0,2.366c0,.06.01.12.02.219Z" transform="translate(-713.01 -36.218)"/>
      <path id="Path_406" data-name="Path 406" d="M1014.5,108.825a.994.994,0,0,0-.024.2c.027.393.046.787.093,1.178s.127.808.194,1.211c.006.037.014.1.036.105.1.037.077.105.071.178a.265.265,0,0,0,.022.11c.069.179.145.356.21.537a6.665,6.665,0,0,0,.91,1.663,7.378,7.378,0,0,0,1.367,1.414,9.393,9.393,0,0,0,4.1,1.884c.118.024.239.03.347.043.021-.044.033-.058.033-.071,0-.819.031-1.64-.005-2.457-.037-.848-.112-1.7-.217-2.539-.12-.965-.289-1.924-.443-2.885-.033-.2-.094-.4-.14-.587-.439-.051-6.36-.033-6.55.019" transform="translate(-994.536 -104.238)"/>
      <path id="Path_407" data-name="Path 407" d="M696.03,117.274c.046-.006.092-.015.137-.024a9.184,9.184,0,0,0,2.692-.994,7.655,7.655,0,0,0,3.753-4.471,9.809,9.809,0,0,0,.412-2.017c.014-.154.041-.306.048-.46.009-.174,0-.348,0-.515-.209-.058-6.161-.086-6.595-.034a33.024,33.024,0,0,0-.77,8.551c.121-.013.221-.023.32-.035" transform="translate(-695.686 -104.196)"/>
    </g>
  </g>
</svg>
